<svg width="1024" height="1024" viewBox="0 0 1024 1024" fill="none" xmlns="http://www.w3.org/2000/svg">
<path d="M163 441.231V335.712C163 311.018 183.018 291 207.712 291H313.231C332.986 291 349 307.014 349 326.769C349 346.524 332.986 362.538 313.231 362.538H234.538V441.231C234.538 460.986 218.524 477 198.769 477C179.014 477 163 460.986 163 441.231Z" fill="black"/>
<path d="M861 582.769V688.288C861 712.982 840.982 733 816.288 733H710.769C691.014 733 675 716.986 675 697.231C675 677.476 691.014 661.462 710.769 661.462H789.462V582.769C789.462 563.014 805.476 547 825.231 547C844.986 547 861 563.014 861 582.769Z" fill="black"/>
</svg>
